# xmcd
# 
# Track frame offsets:
#     150
#     16782
#     34332
#     51610
#     64130
#     79322
#     99700
#     114892
#     133320
#     148297
#     161815
# 
# Disc length: 2339
# 
# Revision: 7
# Processed by: cddbd v1.5.2PL0 Copyright (c) Steve Scherf et al.
# Submitted via: fre:ac v1.0.17
# 
DISCID=a409210b
DTITLE=Lonestar - Crazy Nights
DYEAR=1997
DGENRE=Country
TTITLE0=Come Cryin' To Me
TTITLE1=Everything's Changed
TTITLE2=Cheater's Road
TTITLE3=A Week In Juarez
TTITLE4=John Doe On A John Deere
TTITLE5=You Walked In
TTITLE6=Say When
TTITLE7=Amie
TTITLE8=Crazy Nights
TTITLE9=Keys To My Heart
TTITLE10=What Do We Do With The Rest Of The Night
EXTD=
EXTT0=
EXTT1=
EXTT2=
EXTT3=
EXTT4=
EXTT5=
EXTT6=
EXTT7=
EXTT8=
EXTT9=
EXTT10=
PLAYORDER=
